<svg xmlns="http://www.w3.org/2000/svg" xml:space="preserve" width="800" height="800" viewBox="0 0 256 256"><path d="M87.002 70.047c4.24 10.293 16.021 15.2 26.315 10.96 6.352-2.617 10.643-8.108 12.009-14.347l16.375 4.657 2.249-6.608-16.786-11.215 1.627-13.675a5.261 5.261 0 0 0-3.785-5.682l-21.375-6.079a5.262 5.262 0 0 0-6.209 2.84l-5.668 12.175-19.634 1.208-2.249 6.607 16.784 4.774c-1.597 4.516-1.621 9.607.347 14.385zm40.513 61.417H103.24L90.648 85.99c-1.821-8.031-8.992-14.15-17.406-14.15H28.81c-3.065 0-6.129 1.628-7.849 4.309L3.343 106.947c-2.68 4.299-.961 9.699 3.257 12.339 3.843 2.397 9.538.931 12.329-3.065l15.04-26.115h23.303L28.588 139.57a20.42 20.42 0 0 0-.848 18.86l14.36 30.856-12.663 48.457c-1.77 6.999 2.397 14.018 9.214 15.849 6.999 1.77 14.008-2.397 15.849-9.214l13.401-53.029c.718-2.721.627-5.947-.809-8.678l-1.224-2.589 17.204 9.912L66.1 236.236c-2.468 6.706.708 14.362 7.373 16.901a12.86 12.86 0 0 0 16.719-7.596l20.744-56.69a15.277 15.277 0 0 0-6.766-18.529l-36.664-20.926 14.342-25.053 5.234 18.492a9.5 9.5 0 0 0 9.117 6.834h31.314c5.065.183 8.862-3.65 9.052-8.616.174-4.534-4.197-9.145-9.05-9.589zm62.69-71.181c16.823-6.387 25.937-24.044 22.136-41.086-.049.876-.442 1.597-.804 2.401-2.273 5.056-8.353 7.364-13.409 5.09-.804-.362-1.557-.838-2.195-1.263-5.544-4.565-13.392-6.16-20.387-3.504-10.494 3.984-16.014 15.798-11.935 26.542 4.079 10.743 15.851 15.898 26.594 11.82zm63.737 144.025s-4.046-64.753-29.837-88.016c-.17-.153-.337-.295-.506-.443V69.487l21.414-9.347c5.463-2.386 8.391-8.52 6.81-14.269L241.496 8.319c-1.258-4.578-5.99-7.268-10.569-6.01a8.596 8.596 0 0 0-6.009 10.569l9.151 33.277-18.992 8.29-38.175 16.952a22.623 22.623 0 0 0-13.325 18.525l-1.897 20.062-22.306-12.783a8.598 8.598 0 0 0-8.55 14.918l30.013 17.2a11.451 11.451 0 0 0 5.703 1.526 11.46 11.46 0 0 0 5.275-1.29 11.43 11.43 0 0 0 6.146-9.106l1.797-19.007 8.947 20.92s1.934 13.718-22.757 31.354c-28.32 20.228-18.711 62.202-18.711 62.202s8.44-2.941 20.734-4.623v31.425c.008 6.093 5.169 11.046 11.126 11.126 6.093-.008 11.038-5.166 11.126-11.126v-32.395c4.144.236 8.392.733 12.656 1.583l-.259.118 8.408 33.344c1.498 5.906 7.713 9.447 13.508 8.068 5.906-1.498 9.44-7.708 8.068-13.508l-6.186-24.531c24.544.793 27.524-11.091 27.524-11.091z"/></svg>